<?xml version="1.0" encoding="UTF-8"?>
<!DOCTYPE svg PUBLIC "-//W3C//DTD SVG 1.1//EN" "http://www.w3.org/Graphics/SVG/1.1/DTD/svg11.dtd">
<!-- Creator: CorelDRAW 2021.5 -->
<svg xmlns="http://www.w3.org/2000/svg" xml:space="preserve" width="7.97791in" height="8.0755in" version="1.1" style="shape-rendering:geometricPrecision; text-rendering:geometricPrecision; image-rendering:optimizeQuality; fill-rule:evenodd; clip-rule:evenodd"
viewBox="0 0 7977.49 8075.08"
 xmlns:xlink="http://www.w3.org/1999/xlink"
 xmlns:xodm="http://www.corel.com/coreldraw/odm/2003">
 <defs>
  <style type="text/css">
   <![CDATA[
    .fil0 {fill:#CCFF00}
    .fil1 {fill:black;fill-rule:nonzero}
   ]]>
  </style>
 </defs>
 <g id="Layer_x0020_1">
  <metadata id="CorelCorpID_0Corel-Layer"/>
  <path class="fil0" d="M3320.67 386.06c52.01,-122.14 149.26,-224.09 268.01,-286.45 181.22,-95.18 396.38,-126.81 595.43,-74.54 112.41,29.52 214.95,92.55 290.3,179.64 426.58,-21.56 857.57,6.76 1271.05,117.75 385.19,103.4 749.31,288.62 1051.46,549.98 305.01,263.85 539.95,603.12 698.22,972.99 6.87,16.06 13.39,32.25 19.87,48.47 77.39,180.29 132.58,368.77 178.03,559.39 42.56,178.48 70.65,359.87 92.29,541.97l1.04 8.78 0.32 8.83c1.67,45.58 10.72,90.38 11.66,137.39 1.06,53.27 -5.76,104.46 -22.4,152.36 121.32,442.91 185.92,900.79 198.72,1359.7 7.84,281.08 0.34,563.12 -34.73,842.31 -30.92,246.12 -88.92,488.62 -169.59,723.12 -133.06,386.79 -343.13,748.43 -624.71,1046.06 -286.33,302.65 -647.42,532.61 -1041.33,667.68 -412.21,141.35 -860.54,168.67 -1288.55,90.64 -440.68,-80.35 -860.38,-262.53 -1226.99,-518.91 -329.54,-230.47 -613.86,-523.73 -837.36,-857.76 -144.08,44.8 -296.74,61.96 -447.28,50.88 -236.64,-17.42 -466.33,-101.3 -660.88,-236.67 -263.6,-183.42 -459.55,-454.35 -566.29,-756.03l-1.51 -4.28 -1.33 -4.34c-32.64,-106.19 -60.99,-211.86 -69.92,-323 -7.14,-62.08 -10.13,-124.71 -8.55,-187.18 -40.52,-0.73 -81.04,-2.02 -121.54,-4.09l-3.72 -0.19 -3.72 -0.32c-162.1,-13.91 -320.22,-32.46 -473.51,-90.83 -102.61,-39.07 -197.3,-95.7 -270.23,-178.95l-1.81 -2.06 -1.75 -2.11c-103.76,-124.71 -143.53,-297 -104.81,-454.48 43.93,-191.3 164.95,-337.98 304.32,-470.18l1.91 -1.81 1.95 -1.76c264.33,-238.79 571.12,-417.29 888.22,-575.35 -13.44,-117.98 -22.34,-236.4 -30.8,-354.84 -8.45,-75.31 -5.32,-148.7 -9.22,-223.74 -6.37,-60.55 -6.23,-121.97 0.28,-182.49 3.78,-56.37 0.68,-107.28 9.34,-163.93 5.52,-73.48 15.5,-146.64 30.57,-218.79 77.72,-437.2 308.63,-840.57 634.38,-1140.62 320.18,-294.91 713.54,-494.73 1122.18,-636.84 116.09,-40.37 234.13,-74.38 352.97,-105.44z"/>
  <g id="_1753475626752">
   <g>
    <path class="fil1" d="M3689.34 291.31c133.51,-69.85 292.93,-94.56 439.76,-56.81 100.48,27.2 191.99,96.87 233.06,194.11 443.74,-32.57 895.9,-13.42 1327.15,102.98 353.89,94.37 688,265.45 965.94,504.62 279.42,242.96 495.27,554.86 640.81,894.42 6.29,15.27 12.68,30.62 18.87,46.17 73,169.5 125.46,347.23 167.47,526.73 41.36,170.15 67.26,343.63 87.9,517.3 3.15,85.95 36.36,184.77 -26.09,258.05 131.57,451.24 202.53,919.77 214,1389.51 9.16,269.98 -1.11,540.98 -33.12,809.29 -30.71,231.03 -83.46,459.28 -159.51,679.67 -122.78,357.6 -316.89,692.53 -577.25,967.69 -262.21,277.2 -593.07,488.89 -954.28,611.67 -377.03,130.37 -787.83,154.61 -1179.48,82.44 -410.16,-74.02 -801.06,-244.26 -1141.73,-483.34 -355.75,-247.96 -654.41,-575.58 -874.62,-948.82 -158.68,81.79 -340.3,117.6 -518.22,103.44 -198,-13.51 -390.72,-84.75 -553.1,-198.46 -226.68,-157.01 -394.24,-391.65 -485.84,-650.52 -28.12,-91.51 -54.12,-184.49 -61.34,-280.34 -15.08,-127.59 -9.63,-258.7 23.4,-383.23 -119.35,1.67 -238.8,2.77 -357.97,-3.33 -140.17,-12.03 -282.57,-26.46 -414.97,-77.44 -69.02,-25.72 -135.45,-63.38 -184.4,-119.26 -60.51,-72.72 -83.73,-174.03 -60.6,-265.82 33.03,-146.37 136.75,-262.77 242.69,-363.24 285.34,-257.77 627.58,-441.8 972.41,-607.04 -1.48,-31.92 -3.05,-63.93 -7.22,-95.67 -17.3,-135.45 -27.57,-272.02 -37.29,-408.3 -8.79,-73.37 -4.81,-147.57 -8.98,-221.22 -5.46,-48.12 -5.37,-97.33 0.09,-145.45 3.79,-52.46 -0.74,-105.84 8.88,-157.75 4.72,-68.28 13.79,-136.29 27.94,-203.28 68.83,-391.65 276.36,-754.06 568.46,-1022.47 297.46,-274.61 666.53,-460.02 1046.61,-591.59 149.89,-52.74 303.75,-93.17 457.99,-131.2 8.52,-117.5 90.68,-219.74 192.54,-273.5zm64.95 220.48l0 0c117.6,-20.17 235.29,-39.97 353.9,-53.48 -39.05,-15.63 -81.61,-19.33 -123.24,-19.43 -81.05,4.81 -164.69,22.94 -230.66,72.91zm638.32 145.91l0 0c-378.42,29.24 -753.87,97.52 -1118.05,204.38 -367.69,112.05 -728.71,268.04 -1030.52,510.08 -267.3,211.79 -469.09,505.91 -563.18,834.28 -43.03,144.52 -57.83,295.52 -67.36,445.41 -7.68,219.65 11.48,438.56 29.98,657.1 25.81,227.24 52.64,454.84 88.17,680.87 297,-199.66 624.16,-350.47 957.24,-479.08 24.33,-9.9 49.13,-18.97 73.74,-28.31 80.13,-27.75 159.79,-56.53 240.19,-83.27 131.66,-42.75 263.88,-83.36 397.2,-120.65 364.63,-98.17 734.17,-178.94 1107.5,-236.67 -22.48,-221.96 -53.85,-446.05 -27.48,-669.13 26.37,-181.16 103.44,-355.75 223.63,-494.26 94.09,-109.54 215.67,-193 346.87,-251.84 93.82,-41.36 193.46,-68.09 293.95,-87.15 132.4,-17.58 266.56,-17.95 399.7,-9.16 21.28,5 43.21,6.94 65.04,9.25 98.35,16.93 194.67,44.41 286.82,82.9 226.96,95.94 415.71,275.72 523.59,497.12 82.44,159.7 117.79,337.89 149.61,513.13 12.58,51.63 27.11,103.72 23.96,157.38 1.48,38.86 -13.05,75.87 -12.31,114.64 189.77,26.27 378.7,62.27 560.87,122.32 -1.39,-23.41 -2.68,-46.91 -7.59,-69.76 -5,-43.3 -11.1,-86.42 -18.87,-129.25 -2.96,-18.5 -5.28,-37.01 -9.25,-55.24 -4.72,-31.83 -11.38,-63.29 -16.1,-95.02 -4.16,-17.85 -7.31,-35.9 -11.38,-53.75 -48.02,-222.43 -113.8,-442.26 -209.84,-648.96 -118.8,-259.25 -282.47,-499.52 -489.08,-696.79 -260.64,-251.29 -590.11,-424.86 -937.71,-521.27 -405.44,-112.6 -831.6,-129.35 -1249.34,-99.28zm885.53 1133.5l0 0c-155.99,39.41 -303.75,121.2 -408.4,245 -117.13,137.86 -175.33,320.86 -174.22,500.55 1.85,1.39 5.65,4.07 7.59,5.37 198,-26.65 397.11,-44.51 596.12,-62.64 252.49,-23.32 505.73,-39.14 759.15,-47.28 146.09,-2.87 292.46,-13.6 438.56,-5.18 -33.4,-116.3 -80.68,-230.75 -154.52,-327.34 -105.47,-144.43 -261.93,-249.81 -433.28,-299.22 -110.38,-35.34 -226.59,-45.24 -341.69,-48.76 -97.24,5.28 -195.41,11.57 -289.32,39.51zm1117.12 884.79l0 0c-29.14,11.66 -53.2,37.19 -60.7,68 -12.03,47 14.34,100.11 60.6,116.3 59.31,26.55 130.09,-26.09 129.81,-88.92 5.09,-65.32 -67.45,-124.63 -129.72,-95.39zm-389.89 15.17l0 0c-37.38,16.93 -60.6,58.75 -54.86,99.46 1.3,53.75 55.79,96.78 108.44,88.18 60.79,-6.11 103.53,-77.91 77.91,-134.16 -18.6,-50.98 -82.25,-79.57 -131.48,-53.48zm-386.74 22.39l0 0c-71.98,30.62 -73.93,145.54 -4.17,179.77 60.05,35.99 145.26,-15.17 143.96,-84.56 5.37,-69.95 -75.87,-129.26 -139.8,-95.21zm-442.08 112.05l0 0c-0.09,7.12 0,14.25 0.09,21.37 6.39,24.24 14.34,50.33 35.44,66.15 39.69,35.62 107.79,27.01 139.15,-15.55 25.07,-27.29 20.17,-66.43 16.38,-100.11 -19.06,-30.62 -47.93,-61.06 -86.69,-60.79 -52.56,-4.91 -95.12,40.16 -104.37,88.92zm-383.78 58.47l0 0c1.85,52.18 50.61,88.64 99.46,94 27.2,-7.5 56.44,-15.91 74.39,-39.51 24.15,-25.17 23.87,-61.71 21.19,-94.19 -16.84,-34.14 -46.54,-65.59 -86.69,-68.37 -59.49,-8.7 -116.86,48.57 -108.34,108.07zm525.9 286.17l0 0c-247.4,22.76 -494.72,51.35 -739.81,92.71 -183.38,28.77 -366.48,59.86 -547.83,99.74 -270.08,58.66 -538.94,124.07 -802.73,206.69 -16.84,4.54 -33.4,9.9 -50.05,14.81 -270.72,86.23 -538.11,184.68 -795.88,304.77 -117.04,51.25 -227.98,115 -342.61,170.98 -1.76,92.71 2.41,186.06 14.71,277.85 176.53,-4.35 349.92,65.87 486.67,175.14 141.1,113.06 249.44,264.71 320.77,430.23 12.4,25.44 20.63,62.64 -8.05,80.5 -22.02,20.54 -54.12,3.42 -66.98,-18.97 -72.54,-111.95 -156.37,-218.26 -260.73,-302.27 -123.52,-105.38 -283.02,-172.37 -446.61,-171.54 -167,-3.24 -333.45,67.08 -449.01,187.27 -84.1,81.7 -138.04,190.14 -170.14,301.81 -35.53,126.48 -32.48,260.91 -11.48,389.61 7.68,37.29 16.93,74.3 27.94,110.84 72.07,248.24 232.97,473.25 453.64,610.28 143.59,90.11 312.26,140.91 482.14,139.61 147.2,-4.26 292.56,-50.33 415.33,-131.66 43.49,-33.22 113.43,-21.28 141.1,26.64 100.75,196.06 230.01,376.66 375.74,541.72 148.5,166.82 314.02,319.48 499.53,444.39 175.88,122.41 365.28,226.22 565.04,304.22 135.08,55.05 275.9,95.2 418.2,127.03 194.11,39.14 393.31,61.16 591.22,45.9 137.39,-6.48 273.59,-30.44 406.54,-65.14 284.32,-75.04 551.71,-211.32 783.11,-392.57 286.73,-228.72 510.54,-531.73 659.78,-865.83 10.55,-23.96 21.37,-47.83 31.36,-71.98 193.75,-470.48 250.83,-985.55 240.93,-1490.72 -8.79,-73.28 -0.46,-147.76 -13.05,-220.48 -19.61,-430.97 -96.41,-859.44 -227.05,-1270.7 -50.98,-13.7 -101.13,-29.89 -152.02,-43.4 -91.32,-23.78 -184.03,-42.38 -277.29,-55.98 -23.96,-5.18 -48.02,-9.16 -72.07,-12.68 -120.47,-13.23 -240.47,-35.99 -362.14,-31.92 -373.51,3.7 -746.75,27.11 -1118.23,63.1z"/>
   </g>
   <path class="fil1" d="M6743.98 3541.82c80.31,-38.03 168.57,-70.23 258.88,-59.96 124.81,19.52 202.53,138.05 230.75,252.31 9.63,29.51 -7.21,63.37 -34.05,77.35 -37.01,15.64 -76.52,-5.83 -114.92,-0.83 -124.63,5.74 -239.91,61.8 -349.27,117.41 -160.9,89.1 -317.44,186.16 -468.9,290.52 -20.17,14.62 -46.35,26 -71.06,16.19 -31.92,-8.98 -49.59,-44.6 -43.02,-76.06 12.77,-76.98 22.3,-154.88 40.9,-230.75 9.35,-39.32 50.89,-50.43 79.38,-72.07 151.55,-112.42 301.81,-229.55 471.31,-314.11z"/>
   <path class="fil1" d="M3734.41 3825.59c91.04,-117.78 232.88,-193.28 380.82,-206.69 125.18,-10.09 249.9,12.59 371.57,39.69 276.83,66.34 545.51,162.19 811.43,262.86 34.7,24.98 75.59,-15.63 111.4,6.76 38.31,22.39 37.56,72.07 27.57,109.82 -3.52,34.51 -9.53,68.56 -18.14,102.14 -12.21,46.63 -21.37,96.69 -52.55,135.08 -27.11,31.55 -72.91,45.62 -113.06,34.32 -146.37,-34.97 -288.95,-83.73 -434.11,-122.96 -257.77,-71.43 -518.68,-146 -787.92,-152.85 -103.53,-3.61 -206.14,13.88 -306.16,38.68 -43.76,13.32 -92.62,-25.44 -85.77,-71.52 15.54,-65.41 52.74,-123.8 94.93,-175.33z"/>
   <path class="fil1" d="M5593.18 3803.48c13.79,-25.54 47.28,-43.12 75.59,-30.9 23.13,7.31 41.91,28.87 43.4,53.57 9.62,138.04 -12.4,279.79 -73.37,404.7 -14.25,26.56 -28.22,57.27 -57.18,70.69 -29.88,13.6 -75.13,-5.28 -76.33,-40.62 -1.57,-35.16 17.3,-66.71 27.39,-99.37 24.79,-75.68 40.34,-154.05 49.41,-233.06 4.07,-41.64 -2.5,-84.66 11.1,-125z"/>
   <g>
    <path class="fil1" d="M6062.18 4273.12c35.16,-21.1 84.48,11.38 76.98,52.55 -14.99,86.88 -25.9,174.77 -26.92,263.14 443.65,-41.36 887.94,-80.87 1333.81,-85.4 17.21,-0.74 35.81,1.57 49.04,14.07 26.65,19.8 25.91,58.29 18.51,87.34 -13.7,32.01 -50.7,40.25 -81.98,41.26 -0.28,50.43 -6.11,100.85 -13.97,150.63 -35.81,199.85 -131.66,394.7 -293.76,521.55 -48.02,38.3 -101.4,69.48 -158.21,92.7 -102.89,41.36 -215.95,55.79 -326.14,45.71 -19.43,-4.35 -39.14,-6.29 -58.75,-8.33 12.95,122.13 -31.73,248.79 -119.35,335.03 -104.83,112.32 -275.53,149.24 -420.42,104.27 -32.38,-10.09 -73.46,-19.25 -86.14,-55.14 -14.06,-32.75 12.12,-69.67 45.52,-74.67 62.17,9.07 125.37,24.24 188.29,12.03 85.67,-12.21 166.45,-63.74 208.17,-140.26 50.43,-90.02 47.37,-209.37 -15.08,-292.74 -28.5,-38.21 -67.91,-66.99 -111.86,-84.76 -24.43,-7.87 -49.04,-14.8 -74.3,-18.97 -33.03,-6.38 -67.17,-6.2 -100.2,-0.46 -51.81,7.68 -101.87,23.41 -149.98,43.58 -37.29,14.24 -68.56,52.09 -111.58,43.3 -24.06,-8.98 -41.08,-35.16 -37.19,-60.88 5.74,-22.11 18.87,-41.64 36.27,-56.07 65.41,-55.42 146.46,-89.84 229.83,-107.23 -102.79,-229.55 -116.95,-495.74 -49.23,-737.04 10,-30.9 15.36,-70.32 48.67,-85.21zm536.73 418.66l0 0c35.71,122.04 -10.92,275.53 -132.86,329.84 -55.05,19.8 -120.47,16.93 -167.93,-19.8 -87.16,-59.59 -113.43,-176.63 -97.43,-275.91 -27.94,2.13 -55.7,4.35 -83.55,6.29 6.39,120.19 41.17,238.89 97.79,345.02 9.35,23.13 37.38,18.6 57.18,23.96 73.55,18.04 141.84,57.08 193.93,112.32 23.22,23.31 40.25,51.72 61.15,77.07 37.01,10.74 74.3,19.99 112.14,27.3 47,4.72 94.47,5.09 141.37,-0.56 40.06,-7.03 79.76,-15.91 117.78,-30.81 112.14,-44.32 208.73,-125.74 272.02,-228.35 51.26,-74.94 79.66,-162.47 101.59,-249.81 1.76,-13.42 3.7,-26.65 5.92,-39.88 8.14,-38.21 7.12,-77.44 7.77,-116.21 -229.37,4.07 -458.18,22.76 -686.89,39.51z"/>
   </g>
   <g>
    <path class="fil1" d="M3948.5 4629.24c480.93,-8.14 961.68,-26.09 1442.7,-21.83 48.58,3.88 77.54,64.48 52.46,105.66 -12.4,30.16 -46.17,37.19 -75.04,40.34 -0.93,11.94 -1.94,23.96 -2.87,35.99 -10.55,72.91 -25.44,145.35 -55.24,213.17 -84.84,223.72 -271.37,400.07 -490.28,491.85 -31.83,11.57 -63.19,24.43 -95.94,33.31 -122.5,37.29 -251.75,40.25 -378.7,33.4 -79.02,-7.59 -157.2,-23.59 -232.6,-48.48 -132.96,-49.5 -261.38,-119.72 -359.54,-223.81 -131.84,-136.37 -220.67,-315.5 -246.11,-503.69 -24.24,-1.2 -51.54,5.46 -73.19,-8.33 -17.58,-8.79 -25.53,-27.38 -35.99,-42.74 -7.12,-39.88 16.38,-85.77 59.12,-90.95 163.67,-7.03 327.53,-8.05 491.21,-13.88zm390.35 137.49l0 0c17.4,93.08 -2.04,199.01 -71.8,266.93 -47.74,51.81 -120.84,75.41 -190.14,71.52 -42.28,-9.07 -84.85,-21.46 -119.26,-48.67 -84.48,-63.19 -118.06,-178.47 -97.05,-279.6 -69.3,2.5 -138.6,6.66 -207.9,6.11 33.49,250.36 212.06,472.33 444.57,568.28 138.23,59.12 292.83,83.36 442.17,65.41 19.24,-2.41 38.58,-4.35 57.92,-6.38 49.5,-9.44 98.44,-21.93 145.54,-40.16 25.53,-10.55 50.79,-22.02 75.87,-33.68 4.81,-2.22 14.44,-6.48 19.24,-8.6 157.2,-84.75 285.89,-223.63 348.16,-392.02 13.51,-32.2 22.21,-66.06 31.74,-99.46 2.78,-27.57 6.39,-54.87 11.56,-81.89 -296.9,-3.98 -593.72,9.16 -890.62,12.22z"/>
   </g>
   <path class="fil1" d="M1893.29 4899.5c118.34,-45.06 253.97,-29.98 366.39,25.17 177.92,91.5 297.74,265.82 371.3,447.26 20.26,40.52 -17.4,92.24 -61.81,87.53 -28.31,0.18 -45.61,-24.71 -64.76,-41.36 -40.43,-32.75 -96.68,-39.97 -146.19,-27.29 -40.9,13.51 -78.65,40.16 -96.69,80.31 -52.46,100.38 -18.04,228.81 63.29,303.11 36.82,36.08 86.23,53.2 134.25,68.37 43.21,19.8 27.48,88.82 -18.32,92.99 -70.13,5.92 -140.54,-21.19 -196.71,-62.27 -145.63,-105.01 -193.37,-323.27 -104.73,-479.36 33.68,-60.51 89.93,-106.58 153.78,-132.31 34.79,-12.77 71.43,-18.69 108.53,-18.13 -64.95,-107.51 -171.35,-193.1 -294.22,-223.54 -81.98,-16.29 -173.29,-7.22 -241.48,44.97 -41.82,27.29 -69.76,69.76 -90.12,114.54 -6.66,17.95 -22.85,28.4 -37.75,38.95 -26.18,1.67 -51.91,-13.6 -59.86,-39.05 -2.04,-16.19 0.19,-32.38 1.39,-48.39 31.36,-104.18 112.04,-192.35 213.72,-231.49z"/>
   <g>
    <path class="fil1" d="M3987.08 5844.62c56.44,-36.27 129.81,-42.84 192.73,-20.72 122.5,39.69 232.79,107.7 350.57,158.58 502.58,243.71 1043.29,419.5 1601.2,471.77 43.58,5.46 73.09,51.44 63.56,93.73 -5,35.25 -36.73,62.91 -71.89,65.13 -51.91,1.67 -103.35,-9.44 -155.25,-9.35 -21.47,54.59 -50.06,107.51 -91.14,149.89 -20.35,21.56 -48.85,31.83 -73.28,47.65 -9.8,14.71 -15.08,32.01 -21.56,48.58 26.74,16.19 49.59,43.49 50.43,76.15 0.65,37.38 -26.55,73 -62.54,83.18 -62.27,17.86 -127.22,21.47 -191.25,28.5 -242.32,15.36 -485.28,-26.74 -715.48,-101.13 -219.93,-72.07 -429.49,-179.96 -608.24,-327.62 -107.6,-89.84 -202.81,-196.34 -271.09,-319.3 -43.86,-76.98 -73.28,-162.75 -81.97,-251.11 -2.59,-72.44 23.96,-150.81 85.21,-193.93zm88.92 134.44l0 0c-18.6,20.35 -13.32,50.61 -10.36,75.68 22.11,112.51 86.88,211.14 160.16,297.28 169.78,189.4 396.36,319.39 633.96,404.7 238.62,85.95 493.61,134.99 747.86,116.67 12.96,-24.43 24.7,-49.69 40.43,-72.44 -48.76,-13.05 -99.09,-20.54 -146.46,-38.21 -24.7,-10.17 -33.03,-36.54 -31.64,-61.06 12.86,-15.82 26.55,-37.47 50.52,-33.4 69.39,5.37 140.45,32.01 209.75,12.31 36.45,-23.22 51.81,-67.54 77.35,-100.94 -224.28,-40.06 -446.52,-92.99 -663.02,-164.23 -236.67,-77.07 -466.12,-174.96 -689.85,-283.67 -101.59,-48.3 -201.05,-101.41 -304.31,-146.19 -23.13,-7.13 -52.19,-24.15 -74.39,-6.48z"/>
   </g>
  </g>
 </g>
</svg>
