<?xml version="1.0" encoding="UTF-8"?>
<!DOCTYPE svg PUBLIC "-//W3C//DTD SVG 1.1//EN" "http://www.w3.org/Graphics/SVG/1.1/DTD/svg11.dtd">
<!-- Creator: CorelDRAW 2021.5 -->
<svg xmlns="http://www.w3.org/2000/svg" xml:space="preserve" width="7.45724in" height="6.31121in" version="1.1" style="shape-rendering:geometricPrecision; text-rendering:geometricPrecision; image-rendering:optimizeQuality; fill-rule:evenodd; clip-rule:evenodd"
viewBox="0 0 2271.88 1922.74"
 xmlns:xlink="http://www.w3.org/1999/xlink"
 xmlns:xodm="http://www.corel.com/coreldraw/odm/2003">
 <defs>
  <style type="text/css">
   <![CDATA[
    .fil0 {fill:#CCFF00;fill-rule:nonzero}
   ]]>
  </style>
 </defs>
 <g id="Layer_x0020_1">
  <metadata id="CorelCorpID_0Corel-Layer"/>
  <g id="_1788852820256">
   <path class="fil0" d="M1786.3 6.58c-0.66,-3.53 3.3,-4.76 5.42,-6.58 43.93,18.53 87.42,38.2 129.64,60.4 3.42,1.65 4.29,5.65 5.71,8.86 19.15,53.86 40.53,106.9 60.27,160.54 28.53,75.67 57.06,151.33 85.69,226.96 8.35,20.74 15.34,42.05 24.53,62.44 -1.13,-21.31 -5.09,-42.36 -7.32,-63.55 -5.71,-50.85 -13.23,-101.46 -19.01,-152.31 -5.96,-53.6 -13.01,-107.11 -18.35,-160.77 -1.15,-5.9 6.23,-9.32 10.49,-5.44 51.33,26.45 103.05,52.15 154.27,78.79 5.98,3.32 4.14,11.03 5.34,16.66 9.94,164.7 21.64,329.3 32.86,493.93 6,79.4 10.06,158.95 15.38,238.4 0.06,6.02 1.13,12.1 0.35,18.12 -1.32,4.12 -6.18,3.85 -9.65,3.65 -39.39,-2.76 -78.77,-5.96 -118.12,-8.84 -2.29,-0.8 -4.21,-2.49 -5.34,-4.56 -29.73,-69.3 -59.53,-138.61 -89.34,-207.91 -20.35,-48.65 -41.72,-96.86 -62.85,-145.18 -6.72,-14.14 -12.16,-28.88 -19.4,-42.75 16.2,134.36 36.71,268.16 54.73,402.28 1.24,4.35 -0.74,10.31 -5.69,11.01 -76.07,7.21 -152.13,14.39 -228.21,21.4 -4.54,1.44 -10.33,-3.17 -8.35,-7.83 10.84,-33 23.73,-65.31 33.66,-98.62 0.72,-4.08 3.61,-7.09 6.91,-9.38 19.23,-13.98 38.61,-27.77 57.37,-42.4 -4.84,-54.44 -11.61,-108.72 -17.13,-163.1 -12.97,-119.5 -24.26,-239.18 -37.04,-358.7 -7.54,-68.69 -14.92,-137.39 -22.74,-206.03 -2.7,-17.73 -4.31,-35.6 -6.56,-53.37 -2.1,-22.08 -6.7,-43.89 -7.54,-66.09z"/>
   <path class="fil0" d="M1618.69 18.41c42.13,-5.17 84.17,-11.34 126.42,-15.42 6.86,4.25 5.85,12.93 6.8,19.85 6.53,49.51 13.91,98.95 18.7,148.67 0.64,3.61 -1.54,7.23 -4.8,8.72 -99.75,12.62 -199.58,24.76 -299.31,37.56 -87.07,11.5 -174.29,21.97 -261.13,35.02 -3.03,6.06 -2.33,12.99 -2.6,19.54 0.08,12.08 -1.13,24.12 -0.68,36.2 41.47,-5.03 82.81,-11.26 124.14,-17.38 25.54,-4.31 51.47,-6.37 76.89,-11.44 3.01,2.25 7.07,4.66 6.29,9.09 -0.16,26.3 2.25,52.48 2.76,78.77 1.92,18.39 1.05,36.96 2.91,55.35 0.5,7.59 0.76,15.19 0.76,22.8 0.37,3.81 -2.1,8.33 -6.04,9.05 -69.96,8.37 -139.89,17.13 -209.81,25.79 -5.67,0 -5.5,6.39 -5.61,10.45 -0.86,24.92 -1.92,49.84 -2.12,74.79 4.1,0.31 8.25,0.31 12.37,-0.31 68.62,-8.84 137.37,-16.74 206.08,-24.96 4.89,-1.67 9.96,3.07 9.3,8.02 0.14,24.1 2.16,48.11 2.45,72.21 1.92,21.25 1.07,42.67 3.03,63.92 0.25,13.13 0.95,26.28 0.86,39.41 0.15,4.29 -3.36,8.45 -7.63,8.93 -95.73,21.54 -191.36,43.6 -286.9,65.94 -2.97,0.64 -5.69,-1.11 -8.37,-2.02 -55.47,-101.56 -112.06,-202.55 -168.79,-303.43 -2.06,-3.21 -2.39,-6.95 -2.45,-10.64 42.84,-41.27 85.34,-82.83 127.87,-124.38 4.43,-4.64 10.08,-8.16 13.65,-13.56 0.99,-3.52 -0.93,-6.99 -1.46,-10.43 -20.1,-78.17 -42.32,-155.78 -64.25,-233.43 -2.06,-5.05 1.96,-10.95 7.46,-10.51 145.49,-18.74 291.05,-36.98 436.74,-54.05 48.86,-5.75 97.63,-12.33 146.48,-18.1z"/>
   <path class="fil0" d="M587.04 81.76c2.97,-1.67 6.02,0.62 7.81,2.93 0.89,7.69 -0.91,15.34 -1.36,22.98 -4.16,55.06 -8.84,110.08 -13.19,165.09 -2.29,8.39 -12.06,9.03 -18.76,12.08 -87.53,35.54 -175.65,69.63 -262.91,105.91 -26.51,10.33 -52.59,21.71 -79.05,32.12 -2.6,1.3 -6.51,1.9 -6.78,5.44 -7.07,108.28 -15.21,216.53 -22.32,324.81 -1.24,20.26 -3.26,40.51 -3.57,60.83 70.6,-26.32 140.79,-53.8 211.06,-80.99 2.43,-18.02 1.22,-36.26 3.07,-54.32 0.54,-22.3 2.54,-44.55 2.91,-66.85 -38.9,15.23 -77.98,30.03 -116.98,45.02 -1.88,-2.23 -5.32,-3.88 -4.99,-7.26 -0.31,-44.63 -0.04,-89.28 -0.23,-133.91 -0.39,-4.04 1.73,-8.41 5.73,-9.77 82.52,-35.17 164.91,-70.66 247.92,-104.7 10.29,-3.77 19.98,-9.09 30.53,-12.14 1.73,1.44 3.42,2.99 5.05,4.6 -11.46,165.73 -23.5,331.43 -34.82,497.16 0.47,5.36 -2.31,11.21 -7.79,12.72 -80.85,27.21 -161.18,56.01 -242.03,83.22 -70.46,24.32 -141.02,48.32 -211.7,71.96 -2.68,-1.55 -5.54,-2.89 -7.77,-5.07 -20.06,-19.85 -39.21,-40.63 -59.84,-59.92 -3.01,-2.87 -6.6,-5.98 -7.03,-10.39 6.33,-80.33 13.63,-160.6 20.26,-240.91 9.32,-107.75 17.71,-215.56 28.16,-323.2 2.52,-33.15 5.69,-66.23 8.82,-99.32 0.5,-5.81 -0.72,-12.97 4.78,-16.88 7.55,-4.45 15.98,-7.19 23.91,-10.92 135.84,-59.88 272.1,-118.84 410.05,-173.73 30.43,-12.06 60.69,-24.45 91.05,-36.59z"/>
   <g>
    <path class="fil0" d="M636.31 81.49c56.69,-0.49 113.48,2.95 170.17,4.49 58.85,2.25 117.7,3.94 176.54,6.47 2.78,0.37 5.42,2.41 6.51,5.03 21.62,78.11 43.04,156.31 62.83,234.91 -0.02,2.29 -0.74,4.31 -2.18,6.04 -48.28,46.01 -96.18,92.39 -143.93,138.94 -2.99,1.9 -2.93,5.15 -1.09,7.89 72.29,126.84 142.19,255.03 213.1,382.65 2.06,3.71 4.95,7.85 3.17,12.33 -2.99,5.77 -10.66,4.31 -16,5.52 -63.24,8.58 -126.26,18.97 -189.58,27.03 -4,0.08 -7.36,-3.15 -8.6,-6.76 -33.74,-82.15 -68.6,-163.84 -102.55,-245.9 -10.12,-25.44 -21.29,-50.46 -31.6,-75.84 -4.49,-8.99 -7.26,-18.8 -12.2,-27.54 -8.86,1.65 -16.51,8.29 -24.69,12.28 -5.57,2.02 -2.95,8.27 -2.43,12.57 9.5,47.95 17.54,96.16 26.68,144.19 11.91,61.86 24.14,123.64 35.91,185.52 1.26,4.49 1.09,10.76 -3.71,13.07 -37.27,18.92 -73.82,39.19 -111.15,58.01 -3.05,1.67 -7.01,2.8 -9.96,0.29 -27.48,-18.45 -55.26,-36.44 -82.54,-55.18 -4.99,-3.61 -13.23,-6.27 -12.29,-13.89 5.46,-101.19 13.25,-202.26 19.5,-303.43 4.68,-65.78 8.39,-131.62 13.36,-197.38 5.77,-108.1 15.05,-215.95 22.49,-323.94 -0.14,-3.13 1.46,-5.94 4.25,-7.38zm174.21 161.76l0 0c-42.32,4.68 -84.74,8.37 -126.96,13.69 -0.87,42.84 -3.05,85.73 -1.79,128.57 64.09,-25.73 127.91,-52.13 191.98,-77.92 0.74,-23.27 -0.72,-46.55 -0.6,-69.82 -20.94,0.97 -41.74,3.75 -62.62,5.48z"/>
   </g>
   <path class="fil0" d="M1458.28 270.6c102.86,-14.06 205.91,-27.05 308.98,-39.83 3.9,-0.95 7.42,2.35 8.64,5.81 4.91,47.74 11.21,95.38 15.01,143.2 -0.23,3.88 -3.73,6.74 -7.44,7.01 -46.75,8.84 -93.59,17.17 -140.3,26.24 -9.89,2.14 -20.45,2.33 -29.62,6.91 0.7,18.49 0.91,37.02 2.58,55.43 48.92,-8.37 97.92,-16.16 146.77,-24.88 4.43,-1.55 8.41,0.6 11.32,3.9 3.55,47.31 9.89,94.41 13.09,141.78 0.72,3.63 -0.93,6.86 -3.09,9.65 -51.7,9.48 -103.3,19.64 -154.97,29.27 -3.65,-0.04 -5.36,2.87 -4.51,6.21 1.55,25.4 2.37,50.83 4.08,76.23 60.71,-13.96 121.15,-29.25 181.63,-44.24 3.15,-1.13 6.91,-0.6 9.05,2.23 2.89,5.32 1.81,11.63 2.66,17.42 5.75,45.41 11.05,90.89 15.48,136.44 -0.17,3.38 -2.19,7.05 -5.26,8.6 -87.24,28.39 -174.6,56.4 -261.79,84.89 -29.31,9.56 -58.42,19.81 -87.92,28.73 -3.9,1.65 -7.61,-2.04 -8.47,-5.54 -4.62,-138.69 -10.72,-277.32 -15.01,-416.03 -2.72,-82.41 -6.12,-164.81 -8.76,-247.24 -0.89,-5.19 1.79,-12.06 7.87,-12.18z"/>
   <path class="fil0" d="M1162.84 834.71c71.96,-17.6 144.38,-33.5 216.61,-49.97 4.23,-1.67 8.86,1.34 10.12,5.44 22.86,77.92 46.63,155.57 69.28,233.55 11.92,38.63 22.28,77.76 34.36,116.34 19.93,-51.02 39.1,-102.35 58.96,-153.41 2.56,-7.42 11.07,-8.47 17.52,-10.64 56.87,-18.78 113.73,-37.64 170.58,-56.46 7.65,-2.35 15.13,-5.42 23.03,-6.86 3.42,1.44 6.39,5.32 4.23,9.07 -47.33,129.54 -93.19,259.59 -138.17,389.95 -12.55,46.48 -24.12,93.26 -37.17,139.62 -24.94,90.82 -50.09,181.61 -76.06,272.14 -9.94,35.74 -20.37,71.39 -29.23,107.42 -0.99,3.81 -4.49,7.05 -8.54,7.01 -214.3,17.4 -428.46,36.46 -642.61,55.43 -107.34,9.5 -214.59,19.93 -321.97,29.15 -4.66,1.11 -8.1,-1.88 -10.88,-5.13 0.1,-48.87 -0.21,-97.73 -0.23,-146.6 2.12,-2.14 3.9,-5.17 7.23,-5.36 66.01,-12.24 132.05,-24.18 198.22,-35.46 205.17,-33.02 410.23,-66.69 615.75,-97.48 3.67,-1.15 9.87,-0.35 10.66,-5.32 25.31,-95.67 51.62,-191.09 76.66,-286.84 1.69,-6.76 4.31,-13.34 5.15,-20.26 -6.74,-15.3 -15.32,-29.75 -22.84,-44.67 -33.91,-64.27 -68.56,-128.13 -102.49,-192.41 -42.2,-79.07 -85.9,-157.32 -129.41,-235.68 -2.82,-3.85 -2.82,-9.59 1.24,-12.57z"/>
   <g>
    <path class="fil0" d="M806.53 964.93c114.16,-12.95 228.26,-26.63 342.42,-39.54 4.02,-0.85 8.74,-0.02 11.05,3.73 26.67,46.13 52.67,92.7 80.1,138.4 3.38,5.75 1.55,12.72 2.31,19.05 3.01,57.18 7.05,114.28 10.18,171.44 4.64,91.38 10.8,182.7 15.38,274.08 0.45,7.11 -1.51,14.06 -3.32,20.88 -3.69,13.3 -6.53,26.82 -9.96,40.2 -0.54,3.38 -3.79,5.19 -6.06,7.38 -8.58,0.16 -16.96,1.9 -25.35,3.42 -143,22.08 -286.04,43.89 -429.14,65.18 -4.25,0.87 -8.99,0.02 -11.52,-3.77 -20.86,-27.95 -42.53,-55.33 -62.58,-83.9 -4.16,-6.49 -11.87,-12 -10.78,-20.59 2.41,-176.58 3.38,-353.2 6.95,-529.75 0.18,-6.53 -1.28,-15.17 5.05,-19.33 24.41,-13.15 48.22,-27.33 72.17,-41.25 4.14,-2.31 8.24,-5.15 13.11,-5.63zm136.36 167.73l0 0c-8.76,1.42 -17.75,1.9 -26.18,4.74 -0.52,76.52 -0.1,153.06 -0.25,229.6 0.35,33.33 -0.66,66.73 0.58,100.02 41,-5.48 81.9,-11.89 122.82,-17.98 7.11,-1.09 14.39,-1.81 21.13,-4.58 -1.77,-104.84 -6.16,-209.6 -8.41,-314.44 0.02,-4.43 -0.43,-8.82 -1.57,-13.07 -35.89,6.12 -72.15,9.94 -108.12,15.71z"/>
   </g>
   <g>
    <path class="fil0" d="M520.39 944.96c4.18,-1.67 9.36,-2.93 13.15,0.41 44.59,30.43 89.09,60.98 133.89,91.07 2.72,2.06 3.9,5.69 3.83,9.03 -2.27,52.23 -4.51,104.49 -6.72,156.75 -1.61,17.25 0.12,35.02 -3.61,51.95 -21.79,20.86 -44.17,41.12 -65.9,62.07 23,15.83 46.22,31.42 69.49,46.83 5.48,6.8 1.73,16.28 2.12,24.22 -4.16,96.02 -7.83,192.08 -11.87,288.1 -0.89,3.34 -3.01,6.91 -6.53,7.94 -132.59,45.27 -265.57,89.46 -397.93,135.37 -44.82,15.58 -89.75,30.82 -134.61,46.22 -5.03,1.92 -8.53,-2.43 -10.64,-6.31 0.68,-97.87 -0.41,-195.73 -0.62,-293.6 -0.41,-60.46 0.12,-120.96 -0.95,-181.4 -0.76,-93.46 -0.27,-186.93 -0.54,-280.39 -0.45,-4.51 0.76,-9.83 5.17,-11.96 137.33,-48.98 274.78,-97.69 412.25,-146.3zm-190.39 225.97l0 0c-1.01,37.89 -0.99,75.84 -1.18,113.75 0.27,2.21 -0.7,8.88 3.57,6.76 50.87,-17.13 101.46,-35.15 151.92,-53.45 1.75,-19.44 1.53,-38.98 2.25,-58.48 1.73,-19.79 1.69,-39.7 1.86,-59.55 -52.98,16.47 -105.79,33.44 -158.42,50.98zm2.72 279.56l0 0c-2.51,0.37 -4.39,2.54 -3.96,5.17 0.18,43.25 -1.59,86.45 -1.26,129.7 49.49,-15.75 98.53,-32.92 147.84,-49.27 1.09,-43.97 3.3,-87.94 3.96,-131.91 -49.23,14.26 -97.59,31.31 -146.59,46.3z"/>
   </g>
   <path class="fil0" d="M1763.28 1061.15c151.82,-14.41 303.54,-29.99 455.54,-42.34 1.77,1.96 4.43,3.5 5.11,6.31 12.24,45.17 24.57,90.33 36.86,135.49 0.97,4.37 4.16,10.02 -0.27,13.52 -104,104.78 -208.18,209.41 -311.93,314.44 -25.29,25.4 -50.42,50.98 -75.28,76.75l-0.31 1.44c45.35,-11.07 90.25,-24.37 135.35,-36.53 62.5,-17.21 125.15,-33.83 187.71,-50.79 3.79,-1.53 7.69,-0.64 11.09,1.42 13.19,53.37 26.49,106.74 39.48,160.15 1.36,4 -0.19,7.88 -2.74,10.99 -88.95,24.92 -177.44,51.45 -266.23,76.99 -145.7,41.97 -291.13,84.85 -436.64,127.43 -5.52,2.78 -11.96,-2.08 -9.83,-8.12 23.15,-87.18 47.47,-174.04 70.77,-261.18 1.96,-6.08 2.12,-13.07 6.14,-18.26 103.5,-107.48 207.13,-214.92 309.85,-323.18 12.6,-12.64 24.32,-26.08 37,-38.63 -69.67,14.49 -138.73,31.81 -208.12,47.72 -16.7,4.35 -33.81,7.11 -50.32,12.24 -3.96,-2 -6.78,-6.18 -4.39,-10.53 21.89,-63.22 43.6,-126.49 64.79,-189.94 1.4,-2.39 3.54,-4.82 6.37,-5.4z"/>
  </g>
 </g>
</svg>
