<?xml version="1.0" encoding="UTF-8"?>
<!DOCTYPE svg PUBLIC "-//W3C//DTD SVG 1.1//EN" "http://www.w3.org/Graphics/SVG/1.1/DTD/svg11.dtd">
<!-- Creator: CorelDRAW 2021.5 -->
<svg xmlns="http://www.w3.org/2000/svg" xml:space="preserve" width="2.65625in" height="5.33332in" version="1.1" style="shape-rendering:geometricPrecision; text-rendering:geometricPrecision; image-rendering:optimizeQuality; fill-rule:evenodd; clip-rule:evenodd"
viewBox="0 0 1890444.44 3795705.61"
 xmlns:xlink="http://www.w3.org/1999/xlink"
 xmlns:xodm="http://www.corel.com/coreldraw/odm/2003">
 <defs>
  <style type="text/css">
   <![CDATA[
    .fil4 {fill:black;fill-rule:nonzero}
    .fil0 {fill:#A1C900;fill-rule:nonzero}
    .fil1 {fill:#CCFF00;fill-rule:nonzero}
    .fil2 {fill:#CFE9FF;fill-rule:nonzero}
    .fil3 {fill:#EBF6FF;fill-rule:nonzero}
   ]]>
  </style>
 </defs>
 <g id="Layer_x0020_1">
  <metadata id="CorelCorpID_0Corel-Layer"/>
  <g id="_1788885503248">
   <polygon class="fil0" points="1278831.22,1278828.41 1723641.34,1278828.41 1723641.34,2057247.54 1278831.22,2057244.73 "/>
   <polygon class="fil1" points="166803.1,1278828.41 166803.1,2502057.66 500412.09,3375790.84 1501236.28,3375788.04 1501236.28,1278828.41 "/>
   <path class="fil2" d="M1723641.34 2057244.73c0,-122826.44 -99570.22,-222405.06 -222405.06,-222405.06l-444810.13 1794068.44 667215.19 0 0 -1571663.38z"/>
   <path class="fil3" d="M1501236.28 1834839.67c-122834.84,0 -222405.06,99570.22 -222405.06,222405.06l0 237233c0,61413.22 -49787.91,111203.93 -111203.93,111203.93 -61416.02,0 -111203.93,-49787.91 -111203.93,-111203.93l0 -570839.2c0,-61413.22 -49787.91,-111203.93 -111203.93,-111203.93 -61416.02,0 -111203.93,49787.91 -111203.93,111203.93l0 1460459.45c0,61413.22 -49787.91,111203.93 -111203.93,111203.93 -61416.02,0 -111203.93,-49787.91 -111203.93,-111203.93l0 -682043.13c0,-122834.84 -99570.22,-222405.06 -222405.06,-222405.06 -122826.44,0 -222405.06,99570.22 -222405.06,222405.06l0 1126853.25 1334438.79 0 0 -1794068.44z"/>
   <polygon class="fil2" points="945222.22,55599.16 722817.16,611613.22 1167627.28,611613.22 1167627.28,55599.16 "/>
   <polygon class="fil3" points="722817.16,55599.16 945222.22,55599.16 945222.22,611613.22 722817.16,611613.22 "/>
   <path class="fil0" d="M1723641.34 1167624.48l-778419.12 -222405.06 556014.06 444810.13 222405.06 0c61413.22,0 111203.93,-49787.91 111203.93,-111203.93 0,-61416.02 -49787.91,-111203.93 -111203.93,-111203.93l0 2.8z"/>
   <path class="fil1" d="M1612437.41 1278828.41c0,-61413.22 -49787.91,-111203.93 -111203.93,-111203.93l-556014.06 -222405.06 -778419.12 222405.06c-61413.22,0 -111203.93,49787.91 -111203.93,111203.93 0,61416.02 49787.91,111203.93 111203.93,111203.93l1334435.98 -2.8c61413.22,0 111203.93,-49787.91 111203.93,-111203.93l-2.8 2.8z"/>
   <polygon class="fil0" points="1390032.35,500409.29 1167627.28,500409.29 722803.15,945219.42 1390046.36,945219.42 "/>
   <polygon class="fil1" points="500403.69,500409.29 1167635.69,500409.29 1167635.69,945219.42 500403.69,945219.42 "/>
   <path class="fil0" d="M1390046.36 722814.35l-222405.06 0c-14.01,-23530.81 333592.18,444810.13 333592.18,444810.13l222407.87 0c0,-210995.51 -140744.93,-388829.9 -333592.18,-444810.13l-2.8 0z"/>
   <path class="fil1" d="M1167641.29 722814.35l-667243.21 0c-192847.26,55980.23 -333592.18,233814.62 -333592.18,444810.13l1334430.38 0c0,-210995.51 -140744.93,-388829.9 -333592.18,-444810.13l-2.8 0z"/>
   <path class="fil2" d="M1723641.34 3517706.98l-222405.06 0 0 222405.06 222405.06 0c61413.22,0 111203.93,-49787.91 111203.93,-111203.93 0,-61416.02 -49787.91,-111203.93 -111203.93,-111203.93l0 2.8z"/>
   <path class="fil3" d="M1612437.41 3628908.12c0,-61413.22 -49787.91,-111203.93 -111203.93,-111203.93l-1334430.38 2.8c-61413.22,0 -111203.93,49787.91 -111203.93,111203.93 0,61416.02 49787.91,111203.93 111203.93,111203.93l1334433.18 -2.8c61413.22,0 111203.93,-49787.91 111203.93,-111203.93l-2.8 0z"/>
   <circle class="fil1" cx="1167627.28" cy="2739287.86" r="111201.13"/>
   <circle class="fil4" cx="945222.22" cy="278004.23" r="55601.97"/>
   <path class="fil4" d="M1779240.51 3471668.09l0 -2035599.64c64711.12,-22953.6 111203.93,-84759.09 111203.93,-157240.03 0,-73290.7 -47507.12,-135690.2 -113344.63,-158010.57 -17954.92,-196117.14 -147581.7,-367591.09 -331457.1,-437931.33l-8.41 -182482.83c0,-30706.61 -24895.36,-55593.56 -55601.97,-55593.56l-166803.1 0 0 -389208.16c0,-30715.01 -24895.36,-55601.97 -55601.97,-55601.97l-444810.13 0c-30706.61,0 -55601.97,24886.95 -55601.97,55601.97l0 389208.16 -166803.1 0c-30706.61,0 -55601.97,24886.95 -55601.97,55593.56l-14.01 182477.23c-183869.8,70340.24 -313493.77,241814.2 -331451.49,437931.33 -65840.3,22328.77 -113344.63,84728.27 -113344.63,158010.57 0,72480.93 46490.01,134289.23 111203.93,157240.03l0 2035599.64c-64711.12,22953.6 -111203.93,84759.09 -111203.93,157240.03 0,91971.32 74823.37,166803.1 166803.1,166803.1l1556838.24 0c91979.73,0 166803.1,-74831.77 166803.1,-166803.1 0,-72475.33 -46490.01,-134280.82 -111203.93,-157231.62l0 -2.8zm-834018.29 -1914832.64c-91979.73,0 -166803.1,74831.77 -166803.1,166803.1l0 1460459.45c0,30661.78 -24940.19,55601.97 -55601.97,55601.97 -30661.78,0 -55601.97,-24940.19 -55601.97,-55601.97l0 -682043.13c0,-153297.68 -124709.35,-278007.03 -278007.03,-278007.03 -62539.6,0 -120307.48,20765.28 -166803.1,55756.07l0 -834175.2 1445634.31 2.8 0 389365.07c-46498.42,-34990.8 -104263.49,-55756.07 -166803.1,-55756.07 -153297.68,0 -278007.03,124709.35 -278007.03,278007.03l0 237233c0,30661.78 -24940.19,55601.97 -55601.97,55601.97 -30661.78,0 -55601.97,-24940.19 -55601.97,-55601.97l0 -570839.2c0,-91971.32 -74823.37,-166803.1 -166803.1,-166803.1l0 -2.8zm-166803.1 -1445634.31l333606.19 0 0 333609 -333606.19 0 0 -333609zm556011.26 444810.13l8.41 111203.93 -778441.54 0 8.41 -111203.93 778424.73 0zm-1167627.28 667215.19c30706.61,0 55601.97,-24886.95 55601.97,-55601.97 0,-177811.97 117429.87,-336744.38 286435.31,-389208.16l872814.14 0c151140.18,46935.52 261021.59,179005.6 282534.99,333609l-1274981.33 0c-30706.61,0 -55601.97,24886.95 -55601.97,55601.97 0,30715.01 24895.36,55601.97 55601.97,55601.97l1334433.18 -2.8c30661.78,0 55601.97,24940.19 55601.97,55601.97 0,30661.78 -24940.19,55601.97 -55601.97,55601.97l-1556838.24 0c-30661.78,0 -55601.97,-24940.19 -55601.97,-55601.97 0,-30661.78 24940.19,-55601.97 55601.97,-55601.97zm222405.06 1112025.32c91979.73,0 166803.1,74831.77 166803.1,166803.1l0 682043.13c0,91971.32 74823.37,166803.1 166803.1,166803.1 91979.73,0 166803.1,-74831.77 166803.1,-166803.1l0 -1460459.45c0,-30661.78 24940.19,-55601.97 55601.97,-55601.97 30661.78,0 55601.97,24940.19 55601.97,55601.97l0 570839.2c0,91971.32 74823.37,166803.1 166803.1,166803.1 91979.73,0 166803.1,-74831.77 166803.1,-166803.1l0 -237233c0,-91971.32 74823.37,-166803.1 166803.1,-166803.1 91979.73,0 166803.1,74831.77 166803.1,166803.1l0 1404857.48 -1445628.71 2.8 0 -960047.36c0,-91971.32 74823.37,-166803.1 166803.1,-166803.1l0 -2.8zm1334433.18 1349258.32l-1556838.24 0c-30661.78,0 -55601.97,-24940.19 -55601.97,-55601.97 0,-30661.78 24940.19,-55601.97 55601.97,-55601.97l1556838.24 0c30661.78,0 55601.97,24940.19 55601.97,55601.97 0,30661.78 -24940.19,55601.97 -55601.97,55601.97z"/>
   <path class="fil4" d="M1167627.28 2906090.96c91979.73,0 166803.1,-74831.77 166803.1,-166803.1 0,-91971.32 -74823.37,-166803.1 -166803.1,-166803.1 -91979.73,0 -166803.1,74831.77 -166803.1,166803.1 0,91971.32 74823.37,166803.1 166803.1,166803.1zm0 -222405.06c30661.78,0 55601.97,24940.19 55601.97,55601.97 0,30661.78 -24940.19,55601.97 -55601.97,55601.97 -30661.78,0 -55601.97,-24940.19 -55601.97,-55601.97 0,-30661.78 24940.19,-55601.97 55601.97,-55601.97z"/>
  </g>
 </g>
</svg>
